<svg xmlns="http://www.w3.org/2000/svg" viewBox="0 0 43.36 43.46" id="whatsapp">
  <g>
    <g>
      <path d="m0 43.46 3.12-11.62a21.52 21.52 0 1 1 8.57 8.49ZM12.27 36l.73.43a17.49 17.49 0 1 0-6-5.92l.45.74-1.71 6.47Z"></path>
      <path fill-rule="evenodd" d="M29.88 24.45c-.89-.53-2-1.12-3.08-.69-.8.33-1.31 1.58-1.8 2.24a.77.77 0 0 1-1 .22 13.91 13.91 0 0 1-6.95-6 .87.87 0 0 1 .1-1.17A4.73 4.73 0 0 0 18.41 17a4.49 4.49 0 0 0-.57-2.42c-.42-.9-.89-2.19-1.79-2.7a2.45 2.45 0 0 0-2.66.39 5.43 5.43 0 0 0-1.88 4.29 6.18 6.18 0 0 0 .17 1.36A11.48 11.48 0 0 0 13 21c.42.71.88 1.4 1.37 2.07a20.83 20.83 0 0 0 5.9 5.48 18.11 18.11 0 0 0 3.69 1.76 8.21 8.21 0 0 0 4.29.67A5.2 5.2 0 0 0 32.12 28a2.56 2.56 0 0 0 .18-1.47c-.23-.98-1.6-1.59-2.42-2.08Z"></path>
    </g>
  </g>
</svg>
